#!OML:ASF F:\VICON\USERDATA\INSTALL\rory3\rory3.ASF
:FULLY-SPECIFIED
:DEGREES
340
root 16.6851 17.8305 14.6017 299.876 84.8072 301.047
lowerback 9.85767 3.45825 4.25396
upperback -0.266159 5.153 0.630488
thorax -5.48493 2.43558 -2.45351
lowerneck -21.8365 -4.83161 -10.9255
upperneck 28.7911 -4.33636 5.63027
head 13.8426 -2.16818 3.35049
rclavicle -2.43822e-014 -3.97569e-016
rhumerus -25.4473 -7.89845 -82.6598
rradius 33.4985
rwrist 3.36616
rhand -15.5651 8.92165
rfingers 7.12502
rthumb 10.6197 -20.79
lclavicle -2.43822e-014 -3.97569e-016
lhumerus -37.9183 8.90226 81.1217
lradius 26.353
lwrist -9.76884
lhand -17.2051 25.7894
lfingers 7.12502
lthumb 9.03742 55.5758
rfemur 9.36603 -2.27748 28.8952
rtibia 14.3017
rfoot -15.4929 1.37222
rtoes 2.65765
lfemur -24.848 -1.07371 -15.5876
ltibia 22.2589
lfoot -3.03425 5.15982
ltoes -13.0762
341
root 16.8302 17.8318 14.6006 300.29 84.5835 301.378
lowerback 9.78609 3.48251 4.41202
upperback -0.244067 5.20485 0.713788
thorax -5.4121 2.46094 -2.45463
lowerneck -22.0071 -4.78202 -11.0429
upperneck 28.8157 -4.20287 5.63579
head 13.8793 -2.12232 3.39722
rclavicle 7.53332e-014 -7.45443e-015
rhumerus -25.1692 -7.50086 -82.7381
rradius 33.7048
rwrist 3.11112
rhand -15.7101 9.04567
rfingers 7.12502
rthumb 10.4798 -20.6731
lclavicle 7.53332e-014 -7.45443e-015
lhumerus -37.9891 9.35234 81.0427
lradius 26.1007
lwrist -10.0528
lhand -17.0394 26.0082
lfingers 7.12502
lthumb 9.19729 55.7876
rfemur 10.2502 -2.10398 29.071
rtibia 13.4511
rfoot -15.0754 1.30951
rtoes 3.10229
lfemur -24.7725 -1.72621 -15.1402
ltibia 20.2241
lfoot -3.83776 5.54242
ltoes -10.636
342
root 16.9738 17.8523 14.6014 301.657 84.5934 302.654
lowerback 9.7507 3.52454 4.3351
upperback -0.267012 5.24681 0.660837
thorax -5.41508 2.48225 -2.47086
lowerneck -22.1811 -4.79498 -11.1321
upperneck 28.9109 -4.20534 5.74619
head 13.9629 -2.1176 3.45916
rclavicle 7.80851e-014 1.05356e-014
rhumerus -25.0105 -7.43991 -82.8701
rradius 33.9599
rwrist 3.03144
rhand -15.8506 9.05854
rfingers 7.12502
rthumb 10.3443 -20.667
lclavicle 7.80851e-014 1.05356e-014
lhumerus -38.0923 9.77982 80.7783
lradius 25.8675
lwrist -10.4926
lhand -16.6715 26.0849
lfingers 7.12502
lthumb 9.55233 55.8484
rfemur 11.283 -2.42566 28.8573
rtibia 12.234
rfoot -14.602 1.58425
rtoes 2.37077
lfemur -24.8105 -3.8782 -14.4308
ltibia 18.7341
lfoot -5.31439 7.06942
ltoes -2.82099
343
root 17.1163 17.8395 14.5955 302.017 84.4718 302.768
lowerback 9.62013 3.57281 4.43322
upperback -0.384737 5.31639 0.633079
thorax -5.44954 2.5102 -2.558
lowerneck -22.1037 -4.78913 -10.997
upperneck 28.8093 -4.22667 5.64932
head 13.8981 -2.12534 3.38965
rclavicle 8.69062e-015 7.95139e-015
rhumerus -24.9841 -7.60288 -82.9404
rradius 34.2598
rwrist 3.03982
rhand -15.8127 8.97707
rfingers 7.12502
rthumb 10.3808 -20.7467
lclavicle 8.69062e-015 7.95139e-015
lhumerus -38.2478 10.0586 80.5705
lradius 25.6493
lwrist -10.8011
lhand -17.1592 26.2762
lfingers 7.12502
lthumb 9.08168 56.0607
rfemur 12.0447 -3.00633 28.7248
rtibia 11.1512
rfoot -14.179 2.23195
rtoes 1.55387
lfemur -25.244 -5.79863 -13.7111
ltibia 17.4937
lfoot -6.3367 8.86922
ltoes -3.84033
344
root 17.2681 17.8371 14.5854 302.48 84.0867 302.881
lowerback 9.29973 3.73342 4.80324
upperback -0.549035 5.55785 0.622961
thorax -5.39002 2.61785 -2.78462
lowerneck -21.8069 -4.78946 -10.7484
upperneck 28.6399 -4.31691 5.53783
head 13.7609 -2.15257 3.28208
rclavicle 4.41178e-014 -2.78299e-015
rhumerus -25.0861 -7.81347 -82.9233
rradius 34.5247
rwrist 2.99871
rhand -15.8753 9.0935
rfingers 7.12502
rthumb 10.3205 -20.6333
lclavicle 4.41178e-014 -2.78299e-015
lhumerus -38.4479 9.83466 80.5996
lradius 25.5321
lwrist -10.7773
lhand -17.2177 26.4269
lfingers 7.12502
lthumb 9.02532 56.2139
rfemur 12.426 -3.13147 28.8887
rtibia 10.657
rfoot -13.9631 2.68839
rtoes -0.0197513
lfemur -25.5423 -8.74216 -12.1879
ltibia 16.3315
lfoot -8.30127 11.1258
ltoes 2.86153
345
root 17.4203 17.8173 14.5815 303.483 84.1023 303.746
lowerback 9.1472 3.80544 4.71172
upperback -0.620493 5.63196 0.553035
thorax -5.37496 2.65502 -2.8066
lowerneck -21.7346 -4.79141 -10.5861
upperneck 28.6565 -4.38126 5.51797
head 13.7531 -2.165 3.23577
rclavicle -2.73453e-014 7.95139e-016
rhumerus -25.0984 -7.7307 -83.0243
rradius 34.6866
rwrist 2.7738
rhand -16.0259 9.34754
rfingers 7.12502
rthumb 10.1752 -20.3864
lclavicle -2.73453e-014 7.95139e-016
lhumerus -38.6672 9.98254 80.4348
lradius 25.386
lwrist -10.9771
lhand -16.6207 26.0269
lfingers 7.12502
lthumb 9.60131 55.7881
rfemur 12.789 -3.00059 28.7735
rtibia 10.7205
rfoot -14.1061 2.63959
rtoes -2.74004
lfemur -25.6779 -8.12592 -12.5502
ltibia 15.2661
lfoot -7.63958 10.157
ltoes -1.77781
346
root 17.5685 17.7834 14.5754 303.808 84.1422 304.052
lowerback 9.14688 3.78131 4.63954
upperback -0.621652 5.5923 0.560324
thorax -5.38648 2.63722 -2.7546
lowerneck -21.9113 -4.81907 -10.6393
upperneck 28.7761 -4.37442 5.49271
head 13.8424 -2.17112 3.23783
rclavicle -6.56114e-014 -3.77691e-015
rhumerus -24.9964 -7.60045 -83.1142
rradius 34.8725
rwrist 2.60041
rhand -15.9554 9.31406
rfingers 7.12502
rthumb 10.2432 -20.4165
lclavicle -6.56114e-014 -3.77691e-015
lhumerus -38.8395 10.5989 80.1779
lradius 25.1751
lwrist -11.5672
lhand -16.1911 25.7278
lfingers 7.12502
lthumb 10.0158 55.4695
rfemur 13.2234 -2.82614 28.679
rtibia 10.9016
rfoot -14.227 2.6329
rtoes -4.00176
lfemur -25.5579 -6.96972 -13.2276
ltibia 14.4883
lfoot -6.93293 8.89885
ltoes -8.6348
347
root 17.7164 17.7689 14.5679 304.364 84.2819 304.608
lowerback 9.14207 3.69048 4.49449
upperback -0.549323 5.4537 0.573745
thorax -5.33244 2.57621 -2.64022
lowerneck -22.2013 -4.78362 -10.7436
upperneck 28.807 -4.2364 5.43696
head 13.9052 -2.13067 3.25714
rclavicle 6.31576e-014 1.23246e-014
rhumerus -24.7394 -7.37939 -83.2146
rradius 35.0407
rwrist 2.47877
rhand -15.8458 9.25912
rfingers 7.12502
rthumb 10.3489 -20.4662
lclavicle 6.31576e-014 1.23246e-014
lhumerus -38.8478 11.2078 80.044
lradius 24.9096
lwrist -12.0067
lhand -16.1649 25.474
lfingers 7.12502
lthumb 10.0411 55.2145
rfemur 13.6317 -2.74371 28.4236
rtibia 11.1856
rfoot -14.2141 2.79908
rtoes -3.0049
lfemur -25.1706 -6.98214 -13.5603
ltibia 13.979
lfoot -7.14797 8.69096
ltoes -8.00853
348
root 17.8643 17.751 14.56 304.579 84.6229 304.883
lowerback 9.25247 3.59501 4.23871
upperback -0.531589 5.29736 0.477373
thorax -5.40049 2.50266 -2.58794
lowerneck -22.3553 -4.76158 -10.7501
upperneck 28.8697 -4.1854 5.435
head 13.9596 -2.10947 3.26787
rclavicle -2.29596e-014 -1.19271e-015
rhumerus -24.578 -7.50425 -83.327
rradius 35.0084
rwrist 2.64447
rhand -15.7998 9.36656
rfingers 7.12502
rthumb 10.3933 -20.3566
lclavicle -2.29596e-014 -1.19271e-015
lhumerus -38.9225 11.4158 79.9381
lradius 24.7197
lwrist -12.0566
lhand -16.1961 25.5507
lfingers 7.12502
lthumb 10.011 55.2926
rfemur 14.0467 -2.88928 27.9644
rtibia 11.5829
rfoot -14.2477 3.02219
rtoes -3.11086
lfemur -24.8137 -5.56369 -14.6177
ltibia 13.7642
lfoot -6.51984 6.93971
ltoes -6.66649
